# xmcd
#
# Track frame offsets:
#	150
#	27181
#	63614
#	88653
#	120422
#	163696
#	186707
#
# Disc length: 2859 seconds
#
# Revision: 1
# Processed by: cddbd v1.5.2PL0 Copyright (c) Steve Scherf et al.
# Submitted via: audiograbber 1.83.01
#
DISCID=5d0b2907
DTITLE=Mark Knopfler and E.C. - Live in Apollo 87
DYEAR=1987
DGENRE=Rock
TTITLE0=Holy Mother
TTITLE1=Badge
TTITLE2=Let it Rain
TTITLE3=Cocaine
TTITLE4=Layla
TTITLE5=Money for Nothong
TTITLE6=Sunshine of Your Love
EXTD=
EXTT0=
EXTT1=
EXTT2=
EXTT3=
EXTT4=
EXTT5=
EXTT6=
PLAYORDER=
